<svg width="189" height="200" viewBox="0 0 189 200" fill="none" xmlns="http://www.w3.org/2000/svg">
<path d="M44.7388 37.1567C45.3539 37.1567 45.8526 35.593 45.8526 33.6639C45.8526 31.7349 45.3539 30.1712 44.7388 30.1712C44.1237 30.1712 43.625 31.7349 43.625 33.6639C43.625 35.593 44.1237 37.1567 44.7388 37.1567Z" fill="#09FFB5" fill-opacity="0.33"/>
<path d="M51.5362 33.6639C51.5362 35.5944 52.0344 37.1567 52.6499 37.1567C53.2655 37.1567 53.7637 35.5944 53.7637 33.6639C53.7637 31.7335 53.2655 30.1712 52.6499 30.1712C52.0344 30.1712 51.5362 31.7335 51.5362 33.6639Z" fill="#09FFB5" fill-opacity="0.33"/>
<path d="M59.0013 33.6639C59.0013 35.5944 59.4995 37.1567 60.1151 37.1567C60.7307 37.1567 61.2289 35.5944 61.2289 33.6639C61.2289 31.7335 60.7307 30.1712 60.1151 30.1712C59.4995 30.1712 59.0013 31.7335 59.0013 33.6639Z" fill="#09FFB5" fill-opacity="0.33"/>
<path d="M188.877 199.984L14.2891 199.632L14.3048 128.378L6.71444 128.328L6.71444 8.51064L181.331 8.51064L188.888 32.96L189 87.143L183.423 87.0859L183.431 97.9649L188.997 97.9813L188.877 200V199.984ZM16.5193 192.646L186.658 192.99L186.762 104.942L181.209 104.926L181.193 80.0512L186.759 80.1085L186.668 35.7902L180.39 15.4798L8.94198 15.4798L8.94198 121.335L16.5323 121.384L16.5167 192.63L16.5193 192.646Z" fill="#09FFB5" fill-opacity="0.33"/>
<path d="M144.058 151.28L136.214 175.869H134.607V172.254L141.298 151.28H144.058Z" fill="#09FFB5" fill-opacity="0.33"/>
<path d="M138.567 151.28L134.607 163.689V155.035L135.805 151.28H138.567Z" fill="#09FFB5" fill-opacity="0.33"/>
<path d="M149.567 151.28L141.726 175.869H138.966L146.807 151.28H149.567Z" fill="#09FFB5" fill-opacity="0.33"/>
<path d="M155.039 151.28L147.198 175.869H144.438L152.279 151.28H155.039Z" fill="#09FFB5" fill-opacity="0.33"/>
<path d="M160.548 151.28L152.707 175.869H149.947L157.791 151.28H160.548Z" fill="#09FFB5" fill-opacity="0.33"/>
<path d="M166.077 151.28L158.237 175.869H155.477L163.318 151.28H166.077Z" fill="#09FFB5" fill-opacity="0.33"/>
<path d="M171.589 151.28L163.748 175.869H160.986L168.829 151.28H171.589Z" fill="#09FFB5" fill-opacity="0.33"/>
<path d="M177.061 151.28L169.218 175.869H166.461L174.302 151.28H177.061Z" fill="#09FFB5" fill-opacity="0.33"/>
<path d="M181.376 151.28V155.026L174.729 175.869H171.97L179.811 151.28H181.376Z" fill="#09FFB5" fill-opacity="0.33"/>
<path d="M181.376 163.591V172.253L180.22 175.869H177.46L181.376 163.591Z" fill="#09FFB5" fill-opacity="0.33"/>
<path d="M15.379 104.239H14.2653L14.2653 31.9126L37.3284 31.9126V35.4054H15.379L15.379 104.239Z" fill="#09FFB5" fill-opacity="0.33"/>
<path d="M181.378 132.999H177.656V144.671H181.378V132.999Z" fill="#09FFB5" fill-opacity="0.33"/>
<path d="M11.9386 135.961H6.701L6.701 199.73H11.9386L11.9386 135.961Z" fill="#09FFB5" fill-opacity="0.33"/>
<path d="M128.594 14.3926L127.275 12.2864L144.947 12.2679V10.1524L125.949 10.1709L124.703 8.18474L119.616 0L100.374 0L91.652 19.7367L56 19.8845L56.0081 22L92.8037 21.8475L101.521 2.11551L118.651 2.11551L121.801 7.18709L113.059 7.19634L119.649 21.7552L151.267 21.8383L151.373 17.261L183 17.1086V14.4989L128.594 14.3926Z" fill="#15FFFF" fill-opacity="0.3"/>
<path d="M44.2069 12.3352L51.8072 2.16129L95.4985 2.18013V0.018894L50.886 0L43.2857 10.1787L16.6077 10.2825L16.612 12.4437L44.2069 12.3352Z" fill="#15FFFF" fill-opacity="0.3"/>
<path d="M118.194 24.7538L109.549 7.03913L105.014 7L105 9.24123L108.275 9.27062L116.929 27L155 26.9706V24.7294L118.194 24.7538Z" fill="#15FFFF" fill-opacity="0.3"/>
<path d="M40.5049 18.5168H33.6467V26.1048H40.5049V18.5168Z" fill="#15FFFF" fill-opacity="0.3"/>
<path d="M31.9278 18.5168H25.0695V26.1048H31.9278V18.5168Z" fill="#15FFFF" fill-opacity="0.3"/>
<path d="M23.3466 18.5168H16.4884V26.1048H23.3466V18.5168Z" fill="#15FFFF" fill-opacity="0.3"/>
<path d="M99.0855 22.3632C97.7716 22.3632 96.6646 23.5051 96.3017 25.0705L53.4481 25.0896L46.9803 14.8311L5.69833 14.7264C5.34264 13.1515 4.22838 12 2.91087 12C1.303 12 0 13.7081 0 15.816C0 17.9238 1.303 19.632 2.91087 19.632C4.22838 19.632 5.33901 18.4853 5.69833 16.9104L46.2 17.015L52.6678 27.2784L96.2981 27.2593C96.6501 28.8438 97.7644 30 99.0891 30C100.697 30 102 28.2918 102 26.184C102 24.0761 100.697 22.3679 99.0891 22.3679L99.0855 22.3632Z" fill="#15FFFF" fill-opacity="0.3"/>
</svg>
